<?xml version="1.0" standalone="no"?>
<!DOCTYPE svg PUBLIC "-//W3C//DTD SVG 20010904//EN"
 "http://www.w3.org/TR/2001/REC-SVG-20010904/DTD/svg10.dtd">
<svg version="1.0" xmlns="http://www.w3.org/2000/svg"
 width="512.000000pt" height="512.000000pt" viewBox="0 0 512.000000 512.000000"
 preserveAspectRatio="xMidYMid meet">

<g transform="translate(0.000000,512.000000) scale(0.100000,-0.100000)"
fill="#000000" stroke="none">
<path d="M2370 5114 c-19 -2 -78 -9 -130 -15 -791 -90 -1522 -586 -1924 -1305
-146 -262 -252 -587 -297 -914 -20 -143 -18 -527 4 -670 90 -586 331 -1065
738 -1467 63 -62 155 -145 204 -185 934 -746 2268 -743 3200 9 1101 887 1274
2498 388 3598 -409 507 -975 829 -1633 930 -100 15 -472 28 -550 19z m110
-612 l0 -468 -102 -12 c-129 -15 -260 -50 -389 -103 -55 -23 -102 -39 -104
-37 -11 10 -449 776 -453 791 -3 14 15 26 89 61 299 138 631 222 927 235 l32
1 0 -468z m295 458 c280 -26 556 -101 814 -221 82 -39 102 -52 99 -66 -4 -15
-442 -781 -453 -791 -2 -2 -49 14 -104 37 -129 53 -260 88 -388 103 l-103 12
0 468 c0 368 3 468 13 468 6 0 62 -5 122 -10z m-1252 -754 c125 -216 227 -398
227 -404 0 -5 -30 -32 -67 -58 -87 -62 -246 -220 -307 -307 -33 -46 -54 -67
-65 -64 -14 4 -780 443 -790 453 -16 16 173 266 303 401 57 59 144 141 194
182 101 83 251 190 267 191 6 0 113 -177 238 -394z m2381 353 c206 -140 435
-358 577 -549 90 -121 126 -176 118 -184 -10 -11 -775 -449 -790 -453 -11 -3
-31 16 -65 64 -60 85 -217 243 -306 308 -38 27 -68 53 -68 58 0 17 454 797
463 797 5 0 37 -19 71 -41z m-1118 -694 c548 -96 983 -531 1079 -1079 20 -115
20 -337 0 -452 -83 -477 -427 -875 -888 -1029 -142 -47 -255 -65 -417 -65
-162 0 -275 18 -417 65 -465 155 -804 548 -888 1029 -20 115 -20 337 0 452 72
412 338 769 714 958 93 47 255 101 357 120 108 20 349 20 460 1z m-1936 -404
c212 -122 386 -224 388 -226 2 -2 -17 -54 -42 -117 -54 -137 -81 -241 -99
-379 l-13 -104 -459 -3 c-253 -1 -463 2 -468 7 -11 11 9 228 34 361 38 200
103 401 190 589 39 82 52 102 66 99 10 -3 191 -105 403 -227z m3889 127 c87
-187 152 -388 190 -588 25 -133 45 -350 34 -361 -5 -5 -215 -8 -468 -7 l-459
3 -13 104 c-18 138 -45 242 -99 379 -25 63 -44 115 -42 117 13 13 786 455 796
455 7 0 35 -46 61 -102z m-3641 -1210 c15 -129 50 -260 103 -389 23 -55 39
-102 37 -104 -10 -11 -776 -449 -791 -453 -14 -3 -27 17 -66 99 -120 258 -195
534 -221 814 -5 61 -10 116 -10 123 0 9 100 12 468 12 l468 0 12 -102z m3872
90 c0 -7 -5 -62 -10 -123 -23 -254 -90 -512 -193 -750 -59 -137 -77 -167 -95
-163 -14 4 -780 443 -791 453 -1 2 15 48 38 103 50 124 88 268 104 395 l11 97
468 0 c368 0 468 -3 468 -12z m-3594 -785 c26 -38 91 -111 143 -164 53 -52
126 -117 164 -143 37 -26 67 -53 67 -58 0 -17 -453 -798 -463 -798 -16 0 -183
119 -278 199 -53 44 -139 125 -193 182 -126 132 -311 378 -295 393 12 13 786
455 796 456 6 0 33 -30 59 -67z m2835 -162 c211 -123 386 -225 388 -227 19
-19 -188 -284 -339 -434 -150 -151 -415 -358 -434 -339 -11 10 -450 775 -453
790 -3 11 18 32 64 65 87 62 245 220 307 307 34 48 54 67 65 64 10 -2 190
-104 402 -226z m-2206 -326 c124 -50 288 -91 402 -101 l73 -7 0 -468 c0 -369
-3 -469 -12 -469 -120 0 -397 45 -558 91 -188 53 -480 175 -480 200 0 12 451
799 458 799 2 0 55 -20 117 -45z m1458 -349 c125 -216 227 -399 227 -405 0
-26 -304 -152 -495 -205 -149 -41 -430 -86 -542 -86 -10 0 -13 100 -13 468 l0
468 98 11 c126 16 272 54 386 102 50 21 96 39 101 40 6 1 113 -176 238 -393z"/>
<path d="M2381 3265 c-78 -90 -146 -175 -152 -188 -24 -53 39 -113 95 -91 13
5 70 63 127 129 56 66 105 120 109 120 12 0 427 -491 454 -537 68 -118 87
-288 46 -420 -53 -171 -204 -311 -382 -353 -213 -50 -439 43 -560 229 -56 86
-78 168 -78 285 0 117 27 203 95 302 51 75 55 100 20 134 -56 56 -123 9 -194
-137 -54 -111 -71 -182 -71 -303 0 -122 16 -192 72 -305 32 -67 58 -102 122
-166 142 -141 280 -199 476 -199 196 0 334 58 476 199 133 133 194 281 194
471 0 57 -7 127 -15 160 -19 77 -84 209 -127 260 -19 22 -136 160 -262 308
-290 341 -250 332 -445 102z"/>
</g>
</svg>
